<?xml version="1.0" encoding="UTF-8" standalone="no"?>
<!-- Created with Inkscape (http://www.inkscape.org/) -->

<svg
   xmlns:dc="http://purl.org/dc/elements/1.1/"
   xmlns:cc="http://creativecommons.org/ns#"
   xmlns:rdf="http://www.w3.org/1999/02/22-rdf-syntax-ns#"
   xmlns:svg="http://www.w3.org/2000/svg"
   xmlns="http://www.w3.org/2000/svg"
   xmlns:sodipodi="http://sodipodi.sourceforge.net/DTD/sodipodi-0.dtd"
   xmlns:inkscape="http://www.inkscape.org/namespaces/inkscape"
   width="697"
   height="648"
   viewBox="0 0 696.99998 648"
   id="svg7239"
   version="1.1"
   inkscape:version="0.91 r13725"
   sodipodi:docname="icon-s-membership.svg">
  <defs
     id="defs7241" />
  <sodipodi:namedview
     id="base"
     pagecolor="#ffffff"
     bordercolor="#666666"
     borderopacity="1.0"
     inkscape:pageopacity="0.0"
     inkscape:pageshadow="2"
     inkscape:zoom="0.49497475"
     inkscape:cx="380.16909"
     inkscape:cy="209.29355"
     inkscape:document-units="px"
     inkscape:current-layer="layer1"
     showgrid="false"
     units="px"
     inkscape:window-width="1360"
     inkscape:window-height="704"
     inkscape:window-x="0"
     inkscape:window-y="27"
     inkscape:window-maximized="1" />
  <metadata
     id="metadata7244">
    <rdf:RDF>
      <cc:Work
         rdf:about="">
        <dc:format>image/svg+xml</dc:format>
        <dc:type
           rdf:resource="http://purl.org/dc/dcmitype/StillImage" />
        <dc:title />
      </cc:Work>
    </rdf:RDF>
  </metadata>
  <g
     inkscape:label="Layer 1"
     inkscape:groupmode="layer"
     id="layer1"
     transform="translate(0,-404.36218)">
    <g
       id="g6923"
       transform="matrix(0.9105937,0,0,0.9105937,13586.693,3296.0621)"
       style="fill:#0d47a1;fill-opacity:1">
      <path
         id="path6545"
         d="m -14418.325,-2826.0662 c -0.921,-1.8425 -1.843,-3.6849 -3.685,-4.6061 -1.842,-0.9212 -3.685,-1.8424 -5.527,-1.8424 -17.503,-5.5273 -35.928,-11.9758 -53.431,-17.5031 -0.921,0 -1.842,-0.9212 -3.685,-1.8424 -1.842,-0.9212 -3.684,-2.7637 -3.684,-5.5273 -0.922,-4.6061 -1.843,-10.1334 -2.764,-14.7394 -0.921,-5.5273 -1.843,-10.1334 -3.685,-15.6607 -0.921,-4.606 -3.685,-8.2909 -6.448,-11.9757 -0.922,-1.8425 -2.764,-2.7637 -5.528,-2.7637 -2.763,0 -5.527,1.8425 -6.448,3.6849 -0.921,2.7636 -1.843,5.5273 -1.843,9.2121 -0.921,3.6849 0,8.2909 0.922,11.9758 1.842,8.2909 2.763,16.5818 4.606,25.794 0,0 0,0 0,0 0.921,2.7636 0,4.606 -1.843,7.3697 -3.685,3.6848 -7.369,7.3697 -11.976,11.0545 -11.054,10.1334 -22.109,21.188 -33.163,31.3213 -1.843,1.8424 -3.685,3.6849 -4.606,6.4485 -1.843,3.6849 -0.922,7.3697 0.921,10.1333 0,0.9213 0.921,0.9213 0.921,1.8425 1.843,2.7636 3.685,3.6848 6.449,1.8424 2.763,-0.9212 4.606,-2.7636 7.369,-3.6849 9.212,-5.5272 19.346,-11.0545 28.558,-17.503 3.685,-1.8424 6.448,-3.6849 10.133,-4.6061 1.843,-0.9212 2.764,-0.9212 4.606,-1.8424 0,0 0,0.9212 0,0.9212 2.764,11.9758 5.528,23.9516 8.291,35.9273 0,0.9213 0,0.9213 0,0.9213 -2.763,1.8424 -5.527,4.606 -8.291,6.4484 -1.842,1.8425 -3.684,3.6849 -4.606,6.4485 -0.921,2.7637 0,5.5273 0.922,7.3697 0.921,0.9213 1.842,1.8425 3.684,1.8425 0.922,0 1.843,0 2.764,0 12.897,-2.7637 24.873,-5.5273 37.77,-9.2122 0.921,0 1.842,-0.9212 3.685,-0.9212 1.842,-0.9212 2.763,-1.8424 2.763,-3.6848 0,-1.8425 0,-3.6849 -0.921,-5.5273 0,-1.8424 -1.842,-3.6849 -4.606,-4.6061 -3.685,-0.9212 -7.37,-1.8424 -11.055,-2.7636 -0.921,0 -1.842,0 -2.763,-0.9212 -0.921,0 -0.921,0 -0.921,-0.9212 -0.922,-3.6849 -0.922,-8.291 -1.843,-11.9758 -0.921,-8.2909 -1.842,-15.6606 -2.764,-23.9516 0,0 0,-0.9212 0,-0.9212 1.843,-0.9212 3.685,-0.9212 5.528,-1.8424 4.606,-0.9212 9.212,-0.9212 12.897,0 11.976,0.9212 23.03,1.8424 35.006,2.7636 0.921,0 2.764,0 3.685,0 2.763,0 3.685,-0.9212 3.685,-3.6848 1.842,-1.8425 1.842,-4.6061 0.921,-8.2909 z"
         inkscape:connector-curvature="0"
         style="fill:#0d47a1;fill-opacity:1" />
      <path
         id="path6547"
         d="m -14516.895,-2681.4357 -87.515,-58.0365 c -4.606,-2.7636 -10.134,-1.8424 -12.897,2.7637 -2.764,4.606 -1.843,10.1333 2.763,12.897 l 87.516,58.0364 c 1.842,0.9212 3.684,1.8424 4.606,1.8424 2.763,0 5.527,-1.8424 7.369,-4.606 3.685,-4.6061 1.843,-10.1334 -1.842,-12.897 z"
         inkscape:connector-curvature="0"
         style="fill:#0d47a1;fill-opacity:1" />
      <path
         id="path6549"
         d="m -14542.689,-2642.7448 -87.515,-58.0364 c -4.606,-2.7636 -10.134,-1.8424 -12.897,2.7636 -2.764,4.6061 -1.843,10.1334 2.763,12.897 l 87.516,58.0365 c 1.842,0.9212 3.684,1.8424 4.606,1.8424 2.763,0 5.527,-1.8424 7.369,-4.6061 3.685,-4.606 2.764,-10.1333 -1.842,-12.897 z"
         inkscape:connector-curvature="0"
         style="fill:#0d47a1;fill-opacity:1" />
      <path
         id="path6551"
         d="m -14728.774,-3023.2059 c -0.921,-0.9212 -1.843,-1.8425 -3.685,-1.8425 -2.764,0 -4.606,0.9213 -7.37,0.9213 -0.921,0 -0.921,0 -1.842,0 0,0 -0.921,0 -0.921,0 -0.922,-2.7637 -2.764,-4.6061 -3.685,-7.3698 -2.764,-4.606 -4.606,-9.2121 -7.37,-14.7394 0,0 0,0 0,-0.9212 0.921,-0.9212 1.843,-1.8424 2.764,-1.8424 2.763,-1.8424 5.527,-2.7637 8.291,-2.7637 7.369,-1.8424 15.66,-3.6848 23.03,-5.5272 0.921,0 1.842,-0.9212 2.764,-0.9212 1.842,-0.9213 1.842,-1.8425 1.842,-2.7637 0,-1.8424 -0.921,-4.6061 -2.764,-6.4485 -0.921,-0.9212 -1.842,-1.8424 -3.684,-1.8424 -0.922,0 -2.764,0 -3.685,0 -12.897,0 -25.794,0 -37.77,0 -0.921,0 -1.842,0 -2.764,0 -1.842,0 -2.763,-0.9212 -3.685,-2.7637 -1.842,-2.7636 -2.763,-5.5272 -4.606,-9.2121 -1.842,-2.7636 -3.684,-6.4485 -5.527,-9.2121 -1.842,-2.7637 -3.685,-4.6061 -6.448,-6.4485 -0.922,-0.9212 -2.764,-0.9212 -3.685,-0.9212 -1.843,0.9212 -2.764,1.8424 -2.764,3.6848 0,1.8425 0,4.6061 0.921,6.4485 0.922,2.7637 1.843,5.5273 2.764,7.3697 2.764,5.5273 5.527,10.1334 8.291,15.6607 0,0 0,0 0,0 0.921,1.8424 0.921,3.6848 0,4.606 -1.843,2.7637 -3.685,6.4485 -5.527,9.2122 -4.606,9.2121 -10.134,18.4242 -14.74,27.6364 -0.921,1.8424 -1.842,2.7636 -1.842,4.606 0,2.7637 0.921,4.6061 2.763,6.4485 0,0 0.922,0.9212 0.922,0.9212 1.842,1.8425 2.763,1.8425 4.606,0 0.921,-0.9212 2.763,-2.7636 3.685,-3.6848 4.606,-5.5273 10.133,-11.0546 14.739,-17.5031 1.842,-1.8424 3.685,-3.6848 5.527,-5.5273 0.921,-0.9212 1.843,-0.9212 2.764,-1.8424 0,0 0,0 0,0.9212 4.606,7.3697 9.212,13.8182 12.897,21.1879 0,0 0,0.9213 0,0.9213 -0.921,1.8424 -2.764,3.6848 -3.685,5.5272 -0.921,1.8425 -1.842,2.7637 -1.842,4.6061 0,1.8424 0.921,3.6849 1.842,4.6061 0.921,0.9212 1.842,0.9212 2.764,0 0.921,0 0.921,0 1.842,-0.9212 7.37,-4.6061 14.739,-9.2122 22.109,-13.8182 0.921,0 0.921,-0.9213 1.843,-0.9213 0.921,-0.9212 1.842,-1.8424 0.921,-2.7636 0.921,0 0,-0.9212 0,-2.7636 z"
         inkscape:connector-curvature="0"
         style="fill:#0d47a1;fill-opacity:1" />
      <path
         id="path6553"
         d="m -14879.853,-2907.133 207.273,55.2728 -125.285,188.8487 c -0.921,1.8425 -1.843,4.6061 -0.921,7.3698 0.921,2.7636 1.842,4.606 3.684,5.5272 l 270.837,178.7155 c 1.843,0.9212 3.685,1.8424 4.606,1.8424 2.764,0 5.528,-1.8424 7.37,-4.6061 l 187.928,-285.5762 58.957,15.6607 c 0.921,0 1.843,0 2.764,0 1.842,0 2.764,0 4.606,-0.9213 1.842,-0.9212 3.685,-3.6848 4.606,-5.5272 l 64.485,-244.1216 c 0.921,-2.7637 0,-4.6061 -0.921,-7.3697 -0.921,-1.8425 -3.685,-3.6849 -5.528,-4.6061 l -615.37,-163.0548 c -2.764,-0.9212 -4.606,0 -7.37,0.9212 -1.842,0.9212 -3.685,3.6849 -4.606,5.5273 l -64.485,244.1216 c -0.921,5.5273 1.843,10.1333 7.37,11.9758 z m 358.352,414.546 -256.097,-167.6608 240.436,-365.7218 256.098,168.5821 -240.437,364.8005 z m 313.212,-497.4552 -59.878,226.6185 -45.14,-12.897 52.509,-79.2244 c 0.922,-1.8424 1.843,-4.606 0.922,-7.3697 -0.922,-2.7636 -1.843,-4.6061 -3.685,-5.5273 l -77.382,-50.6667 51.588,13.8182 c 0.921,0 1.842,0 2.763,0 3.685,0 7.37,-2.7636 9.212,-6.4485 0.922,-4.6061 -1.842,-10.1334 -6.448,-11.0546 l -104.097,-27.6364 c 0,0 0,0 0,0 l -66.328,-43.297 177.795,46.9819 c 0.921,0 1.842,0 2.763,0 3.685,0 7.37,-2.7637 9.212,-6.4485 0.922,-4.6061 -1.842,-10.1334 -6.448,-11.0546 l -228.461,-60.8001 c -0.921,0 -0.921,0 -1.842,0 l -33.164,-21.1879 c -4.606,-2.7636 -10.133,-1.8424 -12.897,2.7637 l -3.685,4.606 -53.43,-13.8182 c -4.606,-0.9212 -10.134,1.8425 -11.055,6.4485 -0.921,4.6061 1.843,10.1334 6.449,11.0546 l 47.903,12.897 -13.819,21.1879 -39.612,-11.0546 c -4.606,-0.9212 -10.133,1.8425 -11.054,6.4485 -0.921,4.6061 1.842,10.1334 6.448,11.0546 l 34.085,9.2121 -14.739,23.0304 -26.715,-6.4485 c -4.607,-0.9213 -10.134,1.8424 -11.055,6.4485 -0.921,4.606 1.842,10.1333 6.448,11.0545 l 19.346,5.5273 -14.739,22.1091 -11.055,-3.6848 c -4.606,-0.9212 -10.133,1.8424 -11.055,6.4485 -0.921,4.606 1.843,10.1333 6.449,11.0545 l 5.527,1.8425 -25.794,38.6909 -44.218,-11.9758 59.879,-226.6185 438.497,117.9154 z m -597.867,-159.37 141.867,37.7698 -59.879,226.6185 -141.867,-37.7698 59.879,-226.6185 z"
         inkscape:connector-curvature="0"
         style="fill:#0d47a1;fill-opacity:1" />
      <path
         id="path6555"
         d="m -14749.041,-2956.8786 -69.091,-18.4242 c -4.606,-0.9212 -10.133,1.8424 -11.054,6.4485 -0.922,4.606 1.842,10.1333 6.448,11.0545 l 69.091,18.4243 c 0.921,0 1.843,0 2.764,0 3.685,0 7.369,-2.7636 9.212,-6.4485 0,-4.6061 -2.764,-9.2121 -7.37,-11.0546 z"
         inkscape:connector-curvature="0"
         style="fill:#0d47a1;fill-opacity:1" />
    </g>
  </g>
</svg>
