<?xml version="1.0" standalone="no"?>
<!DOCTYPE svg PUBLIC "-//W3C//DTD SVG 20010904//EN" "http://www.w3.org/TR/2001/REC-SVG-20010904/DTD/svg10.dtd">
<!-- Created using Karbon, part of Calligra: http://www.calligra.org/karbon -->
<svg xmlns="http://www.w3.org/2000/svg" xmlns:xlink="http://www.w3.org/1999/xlink" width="550pt" height="841pt">
<defs/>
<g id="layer0">
  <path id="shape0" transform="matrix(6.875 0 0 8.41 44.6875 105.05)" fill="#000000" d="M13.33 17.0273C12.2254 17.0273 11.33 17.753 11.33 18.6483L11.33 29.5897L2 29.5897C0.895431 29.5897 0 30.3155 0 31.2107L0 46.6098C0 47.5051 0.895431 48.2308 2 48.2308L11.33 48.2308L11.33 59.1723C11.33 60.0675 12.2254 60.7932 13.33 60.7932L73.33 60.7932C74.4346 60.7932 75.33 60.0675 75.33 59.1723L75.33 48.2308L85 48.2308C86.1046 48.2308 87 47.5051 87 46.6098L87 31.2107C87 30.3155 86.1046 29.5897 85 29.5897L75.33 29.5897L75.33 18.6483C75.33 17.753 74.4346 17.0273 73.33 17.0273L45.33 17.0273L45.33 12.7966C49.2521 12.0515 51.8788 9.05892 51.4611 5.81156C51.0434 2.56419 47.7116 0.0751075 43.6842 0.00166436C39.6568 -0.0717788 36.1902 2.29333 35.5927 5.52218C34.9952 8.75104 37.4532 11.8363 41.33 12.7236L41.33 17.0273ZM4 44.9889L4 32.8317L11.33 32.8317L11.33 44.9889ZM83 32.8317L83 44.9889L75.33 44.9889L75.33 32.8317ZM39.5 6.49106C39.5 4.70059 41.2909 3.24914 43.5 3.24914C45.7091 3.24914 47.5 4.70059 47.5 6.49106C47.5 8.28152 45.7091 9.73298 43.5 9.73298C41.2909 9.73298 39.5 8.28152 39.5 6.49106ZM54.33 57.5513L32.33 57.5513L32.33 50.257L54.33 50.257ZM71.33 57.5513L58.33 57.5513L58.33 48.636C58.33 47.7408 57.4346 47.0151 56.33 47.0151L30.33 47.0151C29.2254 47.0151 28.33 47.7408 28.33 48.636L28.33 57.5513L15.33 57.5513L15.33 20.2692L71.33 20.2692Z"/>
  <path id="shape1" transform="matrix(6.875 0 0 8.41 206.25 323.227)" fill="#000000" d="M8 12.9677C12.4183 12.9677 16 10.0648 16 6.48384C16 2.90291 12.4183 0 8 0C3.58172 0 0 2.90291 0 6.48384C0 10.0648 3.58172 12.9677 8 12.9677ZM8 3.24192C10.2091 3.24192 12 4.69338 12 6.48384C12 8.2743 10.2091 9.72576 8 9.72576C5.79086 9.72576 4 8.2743 4 6.48384C4 4.69338 5.79086 3.24192 8 3.24192Z"/>
  <path id="shape2" transform="matrix(6.875 0 0 8.41 371.25 323.227)" fill="#000000" d="M8 12.9677C12.4183 12.9677 16 10.0648 16 6.48384C16 2.90291 12.4183 0 8 0C3.58172 0 0 2.90291 0 6.48384C0 10.0648 3.58172 12.9677 8 12.9677ZM8 3.24192C10.2091 3.24192 12 4.69338 12 6.48384C12 8.2743 10.2091 9.72576 8 9.72576C5.79086 9.72576 4 8.2743 4 6.48384C4 4.69338 5.79086 3.24192 8 3.24192Z"/>
  <text id="shape3" fill="#000000" font-family=" Helvetica Neue , Helvetica, Arial-Unicode, Arial, Sans-serif" font-size="4.00000000000pt" font-weight="bold" x="0.00000000000pt" y="2.92187500000pt" transform="matrix(6.875 0 0 8.41 0 936.434)"><tspan x="0"  y="3.65234">Created by Prithvi</tspan></text>
  <text id="shape4" fill="#000000" font-family=" Helvetica Neue , Helvetica, Arial-Unicode, Arial, Sans-serif" font-size="4.00000000000pt" font-weight="bold" x="0.00000000000pt" y="2.85937500000pt" transform="matrix(6.875 0 0 8.41 0 979.141)"><tspan x="0"  y="3.57422">from the Noun Project</tspan></text>
 </g>
</svg>
