<?xml version="1.0" encoding="UTF-8" standalone="no"?>
<!-- Created with Inkscape (http://www.inkscape.org/) -->

<svg
   xmlns:dc="http://purl.org/dc/elements/1.1/"
   xmlns:cc="http://creativecommons.org/ns#"
   xmlns:rdf="http://www.w3.org/1999/02/22-rdf-syntax-ns#"
   xmlns:svg="http://www.w3.org/2000/svg"
   xmlns="http://www.w3.org/2000/svg"
   xmlns:sodipodi="http://sodipodi.sourceforge.net/DTD/sodipodi-0.dtd"
   xmlns:inkscape="http://www.inkscape.org/namespaces/inkscape"
   width="697"
   height="648"
   viewBox="0 0 696.99998 648"
   id="svg7239"
   version="1.1"
   inkscape:version="0.91 r13725"
   sodipodi:docname="icon-s-film.svg">
  <defs
     id="defs7241" />
  <sodipodi:namedview
     id="base"
     pagecolor="#ffffff"
     bordercolor="#666666"
     borderopacity="1.0"
     inkscape:pageopacity="0.0"
     inkscape:pageshadow="2"
     inkscape:zoom="0.49497475"
     inkscape:cx="99.786089"
     inkscape:cy="209.29355"
     inkscape:document-units="px"
     inkscape:current-layer="layer1"
     showgrid="false"
     units="px"
     inkscape:window-width="1360"
     inkscape:window-height="704"
     inkscape:window-x="0"
     inkscape:window-y="27"
     inkscape:window-maximized="1" />
  <metadata
     id="metadata7244">
    <rdf:RDF>
      <cc:Work
         rdf:about="">
        <dc:format>image/svg+xml</dc:format>
        <dc:type
           rdf:resource="http://purl.org/dc/dcmitype/StillImage" />
        <dc:title />
      </cc:Work>
    </rdf:RDF>
  </metadata>
  <g
     inkscape:label="Layer 1"
     inkscape:groupmode="layer"
     id="layer1"
     transform="translate(0,-404.36218)">
    <g
       id="g5703"
       transform="matrix(10.230691,0,0,10.230691,46.694615,421.46234)"
       style="fill:#0d47a1;fill-opacity:1">
      <path
         style="fill:#0d47a1;fill-opacity:1"
         inkscape:connector-curvature="0"
         d="m 58,22 -7,0 -12,0 -12,0 -12,0 -4.57,0 6.34,-1.7 c 0,0 0,0 0,0 l 8.67,-2.32 14.51,-3.89 c 0,0 0,0 0,0 L 44.87,12.77 56.35,9.69 C 56.88,9.55 57.2,9 57.06,8.47 L 54.99,0.74 C 54.92,0.48 54.75,0.27 54.52,0.13 54.29,0 54.02,-0.04 53.76,0.03 L 37.85,4.3 33.5,5.46 c 0,0 0,0 0,0 l -11.59,3.1 c 0,0 0,0 0,0 l -11.59,3.11 c 0,0 0,0 0,0 L 1.61,14 C 1.35,14.08 1.13,14.25 1,14.48 0.87,14.71 0.83,14.98 0.9,15.24 l 0.97,3.63 C 0.74,19.68 0,21 0,22.5 c 0,1.95 1.26,3.6 3,4.22 L 3,31 3,59 c 0,0.55 0.45,1 1,1 l 54,0 c 0.55,0 1,-0.45 1,-1 l 0,-28 0,-8 c 0,-0.55 -0.45,-1 -1,-1 z m -1,8 -8.38,0 3,-6 5.38,0 0,6 z m -7.62,-6 -3,6 -9.76,0 3,-6 9.76,0 z m -24.76,6 3,-6 9.76,0 -3,6 -9.76,0 z m 0.76,-6 -3,6 -9.76,0 3,-6 9.76,0 z M 5,30 5,26.97 c 0.09,-0.01 0.17,-0.03 0.26,-0.05 0.09,-0.01 0.17,-0.03 0.26,-0.05 0.2,-0.05 0.39,-0.11 0.58,-0.18 0.14,-0.05 0.28,-0.12 0.42,-0.19 0.11,-0.06 0.23,-0.11 0.33,-0.18 0.13,-0.08 0.25,-0.16 0.37,-0.25 0.07,-0.05 0.13,-0.1 0.19,-0.16 0.41,-0.35 0.75,-0.76 1.01,-1.23 0.03,-0.05 0.06,-0.11 0.09,-0.16 0.08,-0.16 0.15,-0.32 0.21,-0.48 0,-0.01 0.01,-0.02 0.01,-0.03 l 4.65,0 -3,6 -5.38,0 z m 16.83,-19.34 4.45,5.02 -9.43,2.53 -4.45,-5.02 9.43,-2.53 z m 11.59,-3.1 4.45,5.02 -9.43,2.53 -4.45,-5.02 9.43,-2.53 z m 6.34,-1.7 5.25,-1.41 4.45,5.02 -7.23,1.94 -2.2,0.59 -4.45,-5.02 4.18,-1.12 z m 15.11,2.16 -3.25,0.87 -4.45,-5.02 6.15,-1.65 1.55,5.8 z M 4.43,18 C 4.4,18 4.38,18 4.36,18 4.14,18 3.93,18.02 3.72,18.05 l -0.63,-2.36 7.15,-1.92 4.45,5.02 -6.2,1.66 C 8.45,20.37 8.4,20.3 8.36,20.23 8.3,20.13 8.25,20.03 8.18,19.93 8.05,19.74 7.9,19.57 7.74,19.4 7.68,19.33 7.61,19.27 7.54,19.21 7.41,19.09 7.28,18.98 7.13,18.87 7.06,18.82 7,18.77 6.93,18.73 6.72,18.59 6.51,18.47 6.28,18.37 6.23,18.35 6.18,18.34 6.13,18.32 5.93,18.24 5.73,18.18 5.52,18.13 5.45,18.11 5.38,18.1 5.3,18.08 5.04,18.03 4.77,18 4.5,18 4.48,18 4.46,18 4.43,18 Z M 2,22.5 C 2,21.12 3.12,20 4.5,20 c 0.16,0 0.32,0.02 0.48,0.05 0.05,0.01 0.09,0.03 0.14,0.04 0.1,0.03 0.2,0.05 0.29,0.09 0.06,0.02 0.12,0.05 0.19,0.09 0.07,0.03 0.14,0.07 0.2,0.11 0.07,0.04 0.13,0.08 0.2,0.13 0.05,0.04 0.09,0.07 0.14,0.11 0.07,0.06 0.14,0.12 0.2,0.19 0.02,0.02 0.03,0.04 0.05,0.06 0.25,0.29 0.44,0.64 0.54,1.03 0,0.01 0.01,0.01 0.01,0.02 C 6.97,22.1 7,22.3 7,22.5 c 0,0.12 -0.02,0.23 -0.03,0.34 0,0.01 -0.01,0.01 -0.01,0.02 C 6.87,23.47 6.57,24 6.13,24.38 6.12,24.39 6.12,24.39 6.11,24.4 6.01,24.49 5.9,24.57 5.79,24.64 5.77,24.65 5.74,24.67 5.72,24.68 5.62,24.74 5.51,24.79 5.41,24.83 5.35,24.85 5.29,24.87 5.24,24.88 5.16,24.91 5.07,24.94 4.98,24.95 4.82,24.98 4.66,25 4.5,25 4.39,25 4.29,24.98 4.15,24.96 c -0.01,0 -0.02,0 -0.03,0 C 2.92,24.78 2,23.75 2,22.5 Z M 57,58 5,58 5,32 l 6,0 12,0 12,0 12,0 10,0 0,26 z"
         id="path5705" />
      <path
         style="fill:#0d47a1;fill-opacity:1"
         inkscape:connector-curvature="0"
         d="m 24,36 -14,0 c -0.55,0 -1,0.45 -1,1 l 0,8 c 0,0.55 0.45,1 1,1 l 14,0 14,0 14,0 c 0.55,0 1,-0.45 1,-1 l 0,-8 c 0,-0.55 -0.45,-1 -1,-1 l -14,0 -14,0 z m -13,2 12,0 0,6 -12,0 0,-6 z m 14,0 12,0 0,6 -12,0 0,-6 z m 26,6 -12,0 0,-6 12,0 0,6 z"
         id="path5707" />
      <path
         style="fill:#0d47a1;fill-opacity:1"
         inkscape:connector-curvature="0"
         d="m 52,50 -42,0 c -0.55,0 -1,0.45 -1,1 0,0.55 0.45,1 1,1 l 42,0 c 0.55,0 1,-0.45 1,-1 0,-0.55 -0.45,-1 -1,-1 z"
         id="path5709" />
    </g>
  </g>
</svg>
