<?xml version="1.0" encoding="UTF-8" standalone="no"?>
<svg
   xmlns:dc="http://purl.org/dc/elements/1.1/"
   xmlns:cc="http://creativecommons.org/ns#"
   xmlns:rdf="http://www.w3.org/1999/02/22-rdf-syntax-ns#"
   xmlns:svg="http://www.w3.org/2000/svg"
   xmlns="http://www.w3.org/2000/svg"
   xmlns:sodipodi="http://sodipodi.sourceforge.net/DTD/sodipodi-0.dtd"
   xmlns:inkscape="http://www.inkscape.org/namespaces/inkscape"
   version="1.1"
   x="0px"
   y="0px"
   viewBox="0 0 87.999374 87.99942"
   id="svg4244"
   inkscape:version="0.91 r13725"
   sodipodi:docname="icon-email.svg"
   width="87.999374"
   height="87.99942">
  <metadata
     id="metadata4260">
    <rdf:RDF>
      <cc:Work
         rdf:about="">
        <dc:format>image/svg+xml</dc:format>
        <dc:type
           rdf:resource="http://purl.org/dc/dcmitype/StillImage" />
        <dc:title></dc:title>
      </cc:Work>
    </rdf:RDF>
  </metadata>
  <defs
     id="defs4258" />
  <sodipodi:namedview
     pagecolor="#ffffff"
     bordercolor="#666666"
     borderopacity="1"
     objecttolerance="10"
     gridtolerance="10"
     guidetolerance="10"
     inkscape:pageopacity="0"
     inkscape:pageshadow="2"
     inkscape:window-width="784"
     inkscape:window-height="480"
     id="namedview4256"
     showgrid="false"
     fit-margin-top="0"
     fit-margin-left="0"
     fit-margin-right="0"
     fit-margin-bottom="0"
     inkscape:zoom="2.6700352"
     inkscape:cx="57.836933"
     inkscape:cy="46.692124"
     inkscape:window-x="884"
     inkscape:window-y="205"
     inkscape:window-maximized="0"
     inkscape:current-layer="svg4244" />
  <path
     d="m 78.664037,10.681666 -69.6887794,0 c -4.1436575,0 -7.5339221,3.390264 -7.5339221,7.533921 l 0,45.203533 c 0,4.143657 3.3902646,7.533922 7.5339221,7.533922 l 69.6887794,0 c 4.143657,0 7.533922,-3.390265 7.533922,-7.533922 l 0,-45.203533 c 0,-4.143657 -3.390265,-7.533921 -7.533922,-7.533921 z m 3.766961,52.737454 c 0,2.071828 -1.695133,3.766961 -3.766961,3.766961 l -69.6887794,0 c -2.0718289,0 -3.7669614,-1.695133 -3.7669614,-3.766961 l 0,-45.203533 c 0,-2.071828 1.6951325,-3.766961 3.7669614,-3.766961 l 69.6887794,0 c 2.071828,0 3.766961,1.695133 3.766961,3.766961 l 0,45.203533 z M 77.063078,22.453418 56.438967,41.288224 77.063078,59.181288 c 0.753393,0.659219 0.847567,1.883481 0.188349,2.636873 -0.376697,0.47087 -0.941741,0.659218 -1.412611,0.659218 -0.47087,0 -0.847566,-0.188348 -1.224262,-0.47087 L 53.70792,43.830922 45.138084,51.647366 c -0.376696,0.282522 -0.847567,0.470871 -1.318437,0.470871 -0.47087,0 -0.94174,-0.188349 -1.224262,-0.470871 L 34.025549,43.830922 13.024741,62.006509 c -0.376696,0.282522 -0.753392,0.47087 -1.224263,0.47087 -0.565044,0 -1.035914,-0.188348 -1.41261,-0.659218 -0.6592184,-0.753392 -0.5650444,-1.977654 0.188348,-2.636873 L 31.200328,41.288224 10.576216,22.453418 c -0.7533924,-0.659218 -0.8475664,-1.88348 -0.09417,-2.636872 0.659218,-0.753393 1.883481,-0.847567 2.636873,-0.09417 L 43.819647,47.692057 74.614554,19.628198 c 0.753392,-0.659219 1.977654,-0.659219 2.636873,0.09417 0.659218,0.847566 0.659218,1.977654 -0.188349,2.731046 z"
     id="path4232"
     inkscape:connector-curvature="0"
     style="fill:#ffffff" />
</svg>
