<?xml version="1.0" encoding="UTF-8" standalone="no"?>
<svg
   xmlns:dc="http://purl.org/dc/elements/1.1/"
   xmlns:cc="http://creativecommons.org/ns#"
   xmlns:rdf="http://www.w3.org/1999/02/22-rdf-syntax-ns#"
   xmlns:svg="http://www.w3.org/2000/svg"
   xmlns="http://www.w3.org/2000/svg"
   xmlns:sodipodi="http://sodipodi.sourceforge.net/DTD/sodipodi-0.dtd"
   xmlns:inkscape="http://www.inkscape.org/namespaces/inkscape"
   version="1.1"
   x="0px"
   y="0px"
   viewBox="0 0 87.999374 87.99942"
   id="svg4244"
   inkscape:version="0.91 r13725"
   sodipodi:docname="icon-map.svg"
   width="87.999374"
   height="87.99942">
  <metadata
     id="metadata4260">
    <rdf:RDF>
      <cc:Work
         rdf:about="">
        <dc:format>image/svg+xml</dc:format>
        <dc:type
           rdf:resource="http://purl.org/dc/dcmitype/StillImage" />
        <dc:title></dc:title>
      </cc:Work>
    </rdf:RDF>
  </metadata>
  <defs
     id="defs4258" />
  <sodipodi:namedview
     pagecolor="#ffffff"
     bordercolor="#666666"
     borderopacity="1"
     objecttolerance="10"
     gridtolerance="10"
     guidetolerance="10"
     inkscape:pageopacity="0"
     inkscape:pageshadow="2"
     inkscape:window-width="784"
     inkscape:window-height="480"
     id="namedview4256"
     showgrid="false"
     fit-margin-top="0"
     fit-margin-left="0"
     fit-margin-right="0"
     fit-margin-bottom="0"
     inkscape:zoom="2.6700352"
     inkscape:cx="57.836933"
     inkscape:cy="46.692124"
     inkscape:window-x="884"
     inkscape:window-y="205"
     inkscape:window-maximized="0"
     inkscape:current-layer="svg4244" />
  <path
     d="m 54.239357,23.651594 c 0,-5.130274 -4.197497,-9.327772 -9.42105,-9.327772 -5.223552,0 -9.42105,4.197498 -9.42105,9.327772 0,5.130275 4.197498,9.327773 9.42105,9.327773 5.223553,0 9.42105,-4.197498 9.42105,-9.327773 z m -15.110991,0 c 0,-3.078165 2.518499,-5.596663 5.689941,-5.596663 3.171443,0 5.689941,2.518498 5.689941,5.596663 0,3.078165 -2.518498,5.596664 -5.689941,5.596664 -3.171442,0 -5.689941,-2.518499 -5.689941,-5.596664 z m 5.223553,32.460648 1.305888,-1.305888 C 61.048631,39.602085 62.261241,28.502036 62.261241,25.517149 l 0,-1.865555 c 0,-9.79416 -8.021884,-17.7227668 -17.909322,-17.7227668 -9.887439,0 -17.909323,7.9286068 -17.909323,17.7227668 l 0,1.865555 c 0,2.984887 1.21261,14.084936 16.603434,29.289205 l 1.305889,1.305888 z M 30.173705,23.651594 c 0,-7.742051 6.342885,-13.9916579 14.178214,-13.9916579 7.835328,0 14.178213,6.2496069 14.178213,13.9916579 l 0,1.865555 c 0,1.865554 -0.746221,11.47316 -14.178213,25.278262 C 30.919927,36.990309 30.173705,27.289425 30.173705,25.517149 l 0,-1.865555 z M 86.140338,66.279513 65.525961,78.68545 44.631752,71.782899 c -0.186556,-0.09328 -0.373111,-0.186555 -0.466389,-0.279833 -0.186555,0.09328 -0.279833,0.186555 -0.466389,0.279833 L 22.804765,78.68545 2.1903891,66.279513 13.290437,26.26337 l 11.47316,6.902552 c 0.932777,0.559666 1.21261,1.678999 0.652944,2.518498 -0.559666,0.8395 -1.678999,1.119333 -2.611776,0.652945 L 15.62238,32.046589 6.5744419,64.507237 21.965265,73.835009 25.509819,43.053361 c 0.09328,-1.026055 1.026055,-1.772277 2.05211,-1.678999 1.026054,0.09328 1.772276,1.026054 1.678999,2.052109 l -3.544554,30.31526 16.78999,-5.503385 c 0,0 0,0 0,0 l 0,-6.436163 c 0,-1.026055 0.8395,-1.865555 1.865555,-1.865555 1.026054,0 1.865554,0.8395 1.865554,1.865555 l 0,6.52944 c 0,0 0,0 0,0 l 16.78999,5.596664 -3.544553,-30.501816 c -0.09328,-1.026055 0.652944,-1.958832 1.678999,-2.052109 1.026054,-0.09328 1.958832,0.652944 2.052109,1.678999 l 3.544554,30.501815 15.017713,-9.047939 -9.047939,-32.460648 -7.182385,4.290776 c -0.932777,0.559666 -2.052109,0.279833 -2.611776,-0.652945 -0.559666,-0.839499 -0.279833,-2.052109 0.652944,-2.518498 l 11.47316,-6.902552 11.100049,40.016143 z"
     id="path4264"
     inkscape:connector-curvature="0"
     style="fill:#ffffff" />
</svg>
