<?xml version="1.0" encoding="UTF-8" standalone="no"?>
<!-- Created using Karbon, part of Calligra: http://www.calligra.org/karbon -->

<svg
   xmlns:dc="http://purl.org/dc/elements/1.1/"
   xmlns:cc="http://creativecommons.org/ns#"
   xmlns:rdf="http://www.w3.org/1999/02/22-rdf-syntax-ns#"
   xmlns:svg="http://www.w3.org/2000/svg"
   xmlns="http://www.w3.org/2000/svg"
   xmlns:sodipodi="http://sodipodi.sourceforge.net/DTD/sodipodi-0.dtd"
   xmlns:inkscape="http://www.inkscape.org/namespaces/inkscape"
   width="557.6pt"
   height="518.4pt"
   id="svg8195"
   version="1.1"
   inkscape:version="0.91 r13725"
   sodipodi:docname="icon-s-travel.svg">
  <metadata
     id="metadata8203">
    <rdf:RDF>
      <cc:Work
         rdf:about="">
        <dc:format>image/svg+xml</dc:format>
        <dc:type
           rdf:resource="http://purl.org/dc/dcmitype/StillImage" />
      </cc:Work>
    </rdf:RDF>
  </metadata>
  <sodipodi:namedview
     pagecolor="#ffffff"
     bordercolor="#666666"
     borderopacity="1"
     objecttolerance="10"
     gridtolerance="10"
     guidetolerance="10"
     inkscape:pageopacity="0"
     inkscape:pageshadow="2"
     inkscape:window-width="784"
     inkscape:window-height="480"
     id="namedview8201"
     showgrid="false"
     inkscape:zoom="0.36419751"
     inkscape:cx="348.49998"
     inkscape:cy="324.00002"
     inkscape:window-x="0"
     inkscape:window-y="27"
     inkscape:window-maximized="0"
     inkscape:current-layer="svg8195" />
  <defs
     id="defs8197" />
  <path
     style="fill:#0d47a1;fill-opacity:1"
     inkscape:connector-curvature="0"
     d="m 644.9512,23.6347 c -8.576,-8.58168 -20.148,-13.3165 -32.551,-13.3165 -13.285,0 -25.893,5.30019 -35.701,15.1079 l -51.903,55.4857 -175.176,-52.4366 -32.927,32.9374 c -3.07,3.0649 -4.761,7.1444 -4.761,11.4882 0,4.3385 1.691,8.4179 4.761,11.4828 l 0.793,0.7928 134.28,73.9018 -29.952,32.488 c -25.132,-17.269 -53.504,-29.888 -84.136,-36.874 -17.941,-4.085 -36.283,-6.156 -54.519,-6.156 -114.724,0 -212.6742,78.24 -238.19811,190.268 -14.51027,63.687 -3.35575,129.208 31.41561,184.498 34.7713,55.285 88.9945,93.718 152.6855,108.223 17.946,4.085 36.288,6.157 54.524,6.157 114.74,0 212.691,-78.23 238.203,-190.237 5.533,-24.276 7.319,-48.806 5.501,-72.945 0.01,-0.264 0.051,-0.508 0.051,-0.772 l -0.121,0 c -3.044,-38.93 -15.462,-76.797 -36.838,-110.797 -3.789,-6.013 -7.895,-11.726 -12.138,-17.317 l 31.501,-29.027 73.906,134.302 0.55,0.988 0.803,0.798 c 6.119,6.114 16.793,6.135 22.944,0.01 l 32.943,-32.937 -52.79,-176.365 55.269,-51.6919 c 19.187,-19.2033 19.901,-49.7363 1.579,-68.0519 z m -493.368,556.5165 c -0.507,-0.354 -0.998,-0.724 -1.501,-1.083 0.238,-0.027 0.999,0.01 1.845,0.523 z m -1.506,-1.089 c -23.7686,-17.042 -44.2512,-38.681 -60.2888,-64.183 -30.7019,-48.817 -41.69311,-106.163 -31.3941,-162.552 23.8373,5.326 45.6093,13.422 48.9967,18.384 -0.2858,2.642 -0.7085,5.363 -1.1311,8.096 -2.0398,13.258 -4.5819,29.761 8.444,39.246 10.8278,7.864 20.6888,-0.613 25.9783,-5.168 1.231,-1.057 2.933,-2.52 4.133,-3.313 3.259,3.239 7.751,6.547 12.481,10.04 5.273,3.89 19.277,14.221 18.4,18.052 -0.883,3.894 -2.615,8.74 -4.296,13.427 -4.487,12.529 -8.36,23.352 -1.993,30.068 3.526,3.794 15.821,27.193 17.508,33.159 -0.18,1.966 -0.041,4.503 0.232,8.635 0.296,4.524 0.978,15.108 -0.307,17.724 -5.564,9.321 -29.317,37.276 -36.763,38.385 z m 356.239,-135.121 c -23.853,104.747 -115.452,177.904 -222.74,177.904 -17.058,0 -34.216,-1.94 -51.005,-5.766 -24.286,-5.532 -47.062,-14.838 -67.771,-27.362 15.926,-11.779 33.772,-36.753 35.669,-39.929 3.535,-5.976 3.244,-15.298 2.505,-26.85 -0.143,-2.235 -0.344,-5.294 -0.344,-5.717 1.845,-8.143 -15.753,-37.794 -20.731,-44.716 0.082,-2.923 2.775,-10.453 4.434,-15.071 1.839,-5.137 3.737,-10.442 4.825,-15.251 3.203,-13.94 -11.488,-24.773 -24.451,-34.332 -4.524,-3.34 -8.798,-6.495 -11.134,-8.957 -9.776,-10.31 -20.5981,-1.004 -25.2167,2.964 -1.7651,1.517 -5.0576,4.344 -6.3205,4.365 -4.8452,-3.53 -3.9785,-11.795 -2.0928,-24.012 0.5023,-3.276 0.9994,-6.537 1.3108,-9.681 1.6855,-17.021 -31.1093,-28.123 -61.4458,-34.718 22.1355,-87.398 91.768,-151.783 177.728,-168.243 -5.712,8.666 -10.706,20.883 -12.804,39.828 -0.703,6.346 -1.601,12.011 -2.388,17.015 -3.171,20.007 -5.67,35.807 16.931,45.879 14.199,6.336 23.79,7.345 32.255,8.238 5.126,0.539 9.554,0.999 14.733,2.579 1.94,0.592 3.99,5.565 2.732,25.862 -0.375,6.061 -0.671,10.801 0.83,14.125 1.892,11.224 13.184,62.952 63.476,91.498 -5.481,5.369 -20.959,14.596 -33.519,17 -3.921,0.756 -7.81,1.237 -11.562,1.707 -14.268,1.786 -30.438,3.81 -37.313,22.76 -2.716,7.429 -1.094,12.608 0.74,15.636 4.813,7.969 15.393,9.385 23.89,10.521 2.606,0.349 6.542,0.878 7.293,1.179 9.39,7.324 25.391,16.101 40.462,16.101 7.292,0 14.373,-2.061 20.382,-7.335 5.348,-4.713 19.467,-4.544 30.818,-4.396 14.21,0.164 26.475,0.327 33.35,-6.637 2.991,-3.028 4.517,-7.039 4.417,-11.61 -0.454,-18.448 22.781,-31.812 45.25,-44.732 11.6,-6.674 23.388,-13.459 32.367,-21.338 -0.613,13.829 -2.41,27.706 -5.56,41.492 z m 5.058,-69.156 c -1.105,12.973 -20.726,24.298 -39.786,35.257 -25.254,14.527 -53.874,30.988 -53.028,58.937 -2.262,2.172 -14.522,2.029 -21.894,1.929 -14.77,-0.175 -31.542,-0.386 -41.472,8.343 -11.039,9.697 -33.074,-3.471 -40.625,-9.358 -3.695,-2.891 -8.909,-3.588 -14.939,-4.397 -3.593,-0.481 -11.071,-1.479 -12.334,-2.758 0,-0.01 -0.091,-0.645 0.497,-2.262 3.424,-9.448 9.95,-10.648 24.377,-12.445 4.01,-0.507 8.153,-1.019 12.582,-1.87 15.26,-2.928 45.831,-17.75 47.997,-32.224 0.782,-5.205 -1.701,-9.877 -6.658,-12.503 -51.015,-26.945 -58.794,-82.864 -58.867,-83.413 l -0.556,-4.476 -0.11,-0.048 c 0.061,-1.443 0.163,-3.139 0.253,-4.55 0.914,-14.749 2.299,-37.043 -13.929,-42 -6.643,-2.024 -12.26,-2.616 -17.703,-3.187 -8.001,-0.84 -15.557,-1.638 -27.457,-6.949 -10.86,-4.835 -11.076,-7.81 -7.732,-28.915 0.82,-5.174 1.75,-11.039 2.494,-17.751 3.06,-27.658 12.514,-37.101 21.154,-44.922 6.442,-0.539 12.947,-0.819 19.516,-0.819 17.057,0 34.216,1.939 50.998,5.765 27.892,6.357 53.774,17.698 76.824,33.175 l -7.968,8.651 c -3.868,3.868 -7.214,8.096 -9.993,12.619 l -57.731,-14.949 -21.661,21.665 c -2.679,2.674 -4.153,6.231 -4.159,10.02 0,3.794 1.475,7.361 4.159,10.04 l 0.893,0.893 65.309,33.138 4.128,4.132 33.137,65.299 0.889,0.893 c 2.673,2.685 6.246,4.164 10.029,4.164 3.799,0 7.361,-1.479 10.03,-4.153 l 21.665,-21.661 -15.235,-58.852 c 4.313,-2.689 8.318,-5.871 11.88,-9.437 l 10.188,-9.385 c 3.636,4.845 7.155,9.791 10.405,14.97 19.965,31.727 31.553,67.064 34.433,103.394 z m 120.964,-294.4757 -62.244,58.2287 52.896,176.703 -26.258,26.253 5.607,5.606 -5.416,-4.956 -83.055,-150.906 -68.485,63.133 c -4.085,4.079 -8.672,7.382 -13.623,9.823 l -5.781,2.854 16.112,62.244 -13.396,13.391 -31.748,-62.562 -7.7,-7.704 -62.562,-31.743 13.397,-13.402 61.239,15.859 2.828,-5.866 c 2.468,-5.12 5.85,-9.855 10.278,-14.299 l 62.699,-68.015 -149.341,-82.1931 26.353,-26.3794 175.52,52.5369 58.44,-62.4663 c 6.626,-6.6213 15.266,-10.2728 24.308,-10.2728 8.174,0 15.758,3.0808 21.343,8.6716 12.133,12.1329 11.419,32.6151 -1.411,45.4614 z"
     id="path6580" />
</svg>
