<?xml version="1.0" encoding="UTF-8" standalone="no"?>
<!-- Created with Inkscape (http://www.inkscape.org/) -->

<svg
   xmlns:dc="http://purl.org/dc/elements/1.1/"
   xmlns:cc="http://creativecommons.org/ns#"
   xmlns:rdf="http://www.w3.org/1999/02/22-rdf-syntax-ns#"
   xmlns:svg="http://www.w3.org/2000/svg"
   xmlns="http://www.w3.org/2000/svg"
   xmlns:sodipodi="http://sodipodi.sourceforge.net/DTD/sodipodi-0.dtd"
   xmlns:inkscape="http://www.inkscape.org/namespaces/inkscape"
   width="697"
   height="648"
   viewBox="0 0 696.99998 648"
   id="svg7239"
   version="1.1"
   inkscape:version="0.91 r13725"
   sodipodi:docname="icon-s-medal.svg">
  <defs
     id="defs7241" />
  <sodipodi:namedview
     id="base"
     pagecolor="#ffffff"
     bordercolor="#666666"
     borderopacity="1.0"
     inkscape:pageopacity="0.0"
     inkscape:pageshadow="2"
     inkscape:zoom="0.49497475"
     inkscape:cx="168.75487"
     inkscape:cy="209.29355"
     inkscape:document-units="px"
     inkscape:current-layer="layer1"
     showgrid="false"
     units="px"
     inkscape:window-width="1360"
     inkscape:window-height="704"
     inkscape:window-x="0"
     inkscape:window-y="27"
     inkscape:window-maximized="1" />
  <metadata
     id="metadata7244">
    <rdf:RDF>
      <cc:Work
         rdf:about="">
        <dc:format>image/svg+xml</dc:format>
        <dc:type
           rdf:resource="http://purl.org/dc/dcmitype/StillImage" />
        <dc:title></dc:title>
      </cc:Work>
    </rdf:RDF>
  </metadata>
  <g
     inkscape:label="Layer 1"
     inkscape:groupmode="layer"
     id="layer1"
     transform="translate(0,-404.36218)">
    <path
       style="fill:#0d47a1;fill-rule:evenodd;stroke:none;stroke-width:1;fill-opacity:1"
       id="path5819"
       d="m 348.50014,770.88098 c -70.30332,0 -127.49583,57.1925 -127.49583,127.49583 0,70.30333 57.19251,127.49579 127.49583,127.49579 70.30333,0 127.49584,-57.19246 127.49584,-127.49579 0,-70.30333 -57.19251,-127.49583 -127.49584,-127.49583 m 0,276.24102 c -82.02232,0 -148.74514,-66.72287 -148.74514,-148.74519 0,-82.02232 66.72282,-148.74514 148.74514,-148.74514 82.02233,0 148.74515,66.72282 148.74515,148.74514 0,82.02232 -66.72282,148.74519 -148.74515,148.74519"
       inkscape:connector-curvature="0" />
    <path
       style="fill:#0d47a1;fill-rule:evenodd;stroke:none;stroke-width:1;fill-opacity:1"
       id="path5821"
       d="m 348.74451,936.72543 c 2.08243,0 4.16486,0.61623 5.96043,1.82744 l 32.60706,22.10991 -6.54478,-39.28997 c -0.57374,-3.38926 0.53123,-6.83165 2.96427,-9.25407 l 37.59003,-37.59003 -45.01666,-5.22732 c -3.51676,-0.40374 -6.59791,-2.5393 -8.22348,-5.69482 l -19.33687,-37.61127 -19.33687,37.61127 c -1.62557,3.15552 -4.70672,5.29108 -8.22348,5.69482 l -45.01665,5.22732 37.59002,37.59003 c 2.43304,2.42242 3.53801,5.86481 2.96428,9.25407 l -6.54479,39.28997 32.60706,-22.10991 c 1.79557,-1.21121 3.878,-1.82744 5.96043,-1.82744 m 53.12327,57.27751 c -2.08244,0 -4.16487,-0.61623 -5.96043,-1.82744 l -47.16284,-31.99083 -47.16283,31.99083 c -3.51676,2.3693 -8.11724,2.43304 -11.69775,0.13812 -3.56988,-2.2843 -5.43982,-6.49166 -4.73859,-10.67778 L 294.8669,923.264 245.611,874.01873 c -2.8899,-2.8899 -3.85674,-7.16101 -2.51804,-11.00714 1.33871,-3.85675 4.75985,-6.59791 8.80784,-7.06539 l 61.198,-7.09727 26.20039,-50.94521 c 3.63364,-7.07602 15.25701,-7.07602 18.89064,0 l 26.20039,50.94521 61.198,7.09727 c 4.048,0.46748 7.46913,3.20864 8.80784,7.06539 1.33871,3.84613 0.37186,8.11724 -2.51804,11.00714 l -49.25589,49.24527 9.72155,58.37184 c 0.70123,4.18612 -1.16871,8.39348 -4.73859,10.67778 -1.75307,1.12621 -3.7505,1.68932 -5.73731,1.68932"
       inkscape:connector-curvature="0" />
    <path
       style="fill:#0d47a1;fill-rule:evenodd;stroke:none;stroke-width:1;fill-opacity:1"
       id="path5823"
       d="m 313.1243,707.13306 82.97854,0 104.23847,-148.45828 c 9.64718,-13.6208 10.0828,-31.47022 1.11559,-45.49476 L 455.54777,441.27236 313.1243,707.13306 Z m 88.50336,21.2493 -106.24653,0 c -3.73988,0 -7.20352,-1.96556 -9.11595,-5.16358 -1.92307,-3.20864 -2.01869,-7.18226 -0.255,-10.48653 l 159.3698,-297.49028 c 1.78494,-3.3149 5.19546,-5.43983 8.96721,-5.58857 3.69738,-0.23374 7.32038,1.72119 9.34969,4.89796 l 55.67318,87.19653 c 13.64206,21.35555 12.98333,48.50154 -1.66807,69.17712 L 410.31863,723.85626 c -1.98682,2.83678 -5.23796,4.5261 -8.69097,4.5261 l 0,0 z"
       inkscape:connector-curvature="0" />
    <path
       style="fill:#0d47a1;fill-rule:evenodd;stroke:none;stroke-width:1;fill-opacity:1"
       id="path5825"
       d="m 241.48651,441.22668 -46.03662,72.19452 c -8.83971,13.88642 -8.41472,31.54459 1.10497,44.98478 l 97.60868,139.1192 42.60486,-79.57865 -95.28189,-176.71985 z m 53.88824,287.1525 c -3.44238,0 -6.70415,-1.6787 -8.70159,-4.51548 L 179.18355,570.64558 c -14.50265,-20.49496 -15.16138,-47.4497 -1.64682,-68.64589 l 55.75818,-87.45151 c 2.02931,-3.17678 5.64169,-5.29108 9.34969,-4.89797 3.76113,0.13812 7.17164,2.25243 8.96721,5.57794 L 358.1877,612.87857 c 1.68932,3.13428 1.69995,6.91665 0.0106,10.06155 l -53.45263,99.82924 c -1.74245,3.26177 -5.04671,5.37607 -8.73347,5.58857 -0.21249,0.0106 -0.42498,0.0213 -0.63748,0.0213 l 0,0 z"
       inkscape:connector-curvature="0" />
    <path
       style="fill:#0d47a1;fill-rule:evenodd;stroke:none;stroke-width:1;fill-opacity:1"
       id="path5827"
       d="m 294.43341,494.64 108.42458,0 34.14764,-63.74792 -176.9536,0 34.38138,63.74792 z m 114.77813,21.2493 -121.12105,0 c -3.89925,0 -7.49038,-2.14618 -9.34969,-5.57794 l -45.84538,-84.99722 c -1.76369,-3.29365 -1.6787,-7.27789 0.23374,-10.49716 1.92306,-3.19802 5.3867,-5.17421 9.12658,-5.17421 l 212.49306,0 c 3.72925,0 7.19289,1.96556 9.11595,5.16358 1.91244,3.20865 2.00806,7.18227 0.24437,10.48654 l -45.52664,84.99722 c -1.84869,3.44239 -5.45045,5.59919 -9.37094,5.59919 l 0,0 z"
       inkscape:connector-curvature="0" />
    <path
       style="fill:#0d47a1;fill-rule:evenodd;stroke:none;stroke-width:1;fill-opacity:1"
       id="path5829"
       d="m 348.50014,749.63167 c 3.54864,0 7.09727,0.12749 10.62466,0.37186 l 0,-21.62117 -21.24931,0 0,21.62117 c 3.52739,-0.24437 7.07602,-0.37186 10.62465,-0.37186 m 21.24931,22.87488 c -0.54186,0 -1.09434,-0.0425 -1.62557,-0.11687 -12.85583,-1.99744 -26.42351,-1.99744 -39.23685,0 -3.0599,0.48873 -6.19417,-0.40374 -8.54222,-2.43305 -2.36929,-2.01868 -3.71862,-4.97234 -3.71862,-8.07474 l 0,-44.12418 c 0,-5.87543 4.75984,-10.62465 10.62465,-10.62465 l 42.49861,0 c 5.86481,0 10.62465,4.74922 10.62465,10.62465 l 0,44.12418 c 0,3.1024 -1.34933,6.05606 -3.71863,8.07474 -1.93368,1.65745 -4.38798,2.54992 -6.90602,2.54992"
       inkscape:connector-curvature="0" />
  </g>
</svg>
