<?xml version="1.0" encoding="UTF-8" standalone="no"?>
<!-- Created with Inkscape (http://www.inkscape.org/) -->

<svg
   xmlns:dc="http://purl.org/dc/elements/1.1/"
   xmlns:cc="http://creativecommons.org/ns#"
   xmlns:rdf="http://www.w3.org/1999/02/22-rdf-syntax-ns#"
   xmlns:svg="http://www.w3.org/2000/svg"
   xmlns="http://www.w3.org/2000/svg"
   xmlns:sodipodi="http://sodipodi.sourceforge.net/DTD/sodipodi-0.dtd"
   xmlns:inkscape="http://www.inkscape.org/namespaces/inkscape"
   width="697"
   height="648"
   viewBox="0 0 696.99998 648"
   id="svg7239"
   version="1.1"
   inkscape:version="0.91 r13725"
   sodipodi:docname="icon-s-box.svg">
  <defs
     id="defs7241" />
  <sodipodi:namedview
     id="base"
     pagecolor="#ffffff"
     bordercolor="#666666"
     borderopacity="1.0"
     inkscape:pageopacity="0.0"
     inkscape:pageshadow="2"
     inkscape:zoom="0.49497475"
     inkscape:cx="-134.92634"
     inkscape:cy="209.29355"
     inkscape:document-units="px"
     inkscape:current-layer="layer1"
     showgrid="false"
     units="px"
     inkscape:window-width="1360"
     inkscape:window-height="704"
     inkscape:window-x="0"
     inkscape:window-y="27"
     inkscape:window-maximized="1" />
  <metadata
     id="metadata7244">
    <rdf:RDF>
      <cc:Work
         rdf:about="">
        <dc:format>image/svg+xml</dc:format>
        <dc:type
           rdf:resource="http://purl.org/dc/dcmitype/StillImage" />
        <dc:title />
      </cc:Work>
    </rdf:RDF>
  </metadata>
  <g
     inkscape:label="Layer 1"
     inkscape:groupmode="layer"
     id="layer1"
     transform="translate(0,-404.36218)">
    <path
       style="color:#000000;text-indent:0;text-transform:none;direction:ltr;block-progression:tb;baseline-shift:baseline;display:inline;overflow:visible;visibility:visible;fill:#0d47a1;fill-opacity:1;stroke:none;marker:none;enable-background:accumulate"
       d="m 345.81232,413.97977 c -36.25041,12.29815 -71.17031,28.70286 -107.09889,42.13996 -60.40603,24.18432 -121.13595,47.60108 -180.954881,73.10735 -7.365034,10.5825 -1.606056,23.9102 -3.214169,35.74618 0.03085,119.41175 -0.749562,238.85702 0.432874,358.24729 5.779542,10.57776 19.549268,10.34693 29.204115,15.55407 87.628801,35.0835 175.010821,70.79948 263.057071,104.80018 16.77517,-2.1286 30.78036,-12.7416 46.88822,-17.181 81.60557,-32.95845 163.76123,-64.65195 244.91542,-98.62067 7.46168,-9.94439 2.078,-22.80857 3.38176,-34.14361 0.072,-120.07916 0.80303,-240.17035 -0.41025,-360.24139 -6.65866,-10.93353 -21.07101,-10.59802 -31.39111,-16.16884 -86.97383,-34.92412 -173.69163,-70.61426 -261.28136,-103.91032 -1.21842,-0.54362 -2.34431,0.46073 -3.5288,0.6708 z m 3.47636,19.47965 c 32.17666,12.912 64.35332,25.82667 96.531,38.73641 C 385.67892,497.82929 200.74078,579.42777 197.77441,579.40494 162.08129,565.0333 126.38817,550.65776 90.69505,536.28396 176.63759,501.90551 262.58013,467.52829 348.5237,433.1522 Z m 130.10396,52.17536 c 42.32916,16.97258 84.65934,33.94568 126.98952,50.91631 -85.96002,34.38576 -171.92106,68.77038 -257.88314,103.15388 -40.3951,-16.23876 -80.7902,-32.477 -121.1853,-48.7173 83.7648,-35.22251 167.52857,-70.44594 251.29337,-105.66814 z m 143.79451,68.32948 0,359.69717 c -88.32283,35.39648 -176.64567,70.7908 -264.96748,106.18627 l 0,-362.97654 C 446.54148,621.55519 534.86432,586.24127 623.18715,550.92787 Z M 76.653878,552.06455 c 37.615862,15.01056 69.029592,25.52417 106.646482,40.53442 0,0 0.36501,74.58746 -0.51924,99.42262 9.96022,6.77228 39.34427,16.76829 39.34427,16.76829 l 0,-101.02118 c 38.55462,15.38463 78.11996,33.70735 116.67663,49.09043 l 0,362.98857 C 250.47918,984.45223 162.15635,949.05791 73.834539,913.66143 l 0,-362.72153 z"
       id="path6789"
       inkscape:connector-curvature="0"
       sodipodi:nodetypes="cccccccccccccccccccccccccccccccccccccccccc" />
    <rect
       style="opacity:1;fill:#0d47a1;fill-opacity:1;stroke:none;stroke-width:11.1696825;stroke-linejoin:miter;stroke-miterlimit:4;stroke-dasharray:none;stroke-dashoffset:0;stroke-opacity:1"
       id="rect7202"
       width="55.180447"
       height="143.17558"
       x="180.07474"
       y="536.35828"
       transform="matrix(0.96359863,0.2673531,0.00896813,0.99995979,0,0)" />
    <path
       style="opacity:1;fill:#0d47a1;fill-opacity:1;stroke:none;stroke-width:10.5;stroke-linejoin:miter;stroke-miterlimit:4;stroke-dasharray:none;stroke-dashoffset:0;stroke-opacity:1"
       d="M 177.21441,580.825 457.99363,463.4168 506.1013,486.948 189.65056,622.96918 Z"
       id="rect7206"
       inkscape:connector-curvature="0"
       sodipodi:nodetypes="ccccc" />
    <rect
       style="opacity:1;fill:#0d47a1;fill-opacity:1;stroke:none;stroke-width:9.32785702;stroke-linejoin:bevel;stroke-miterlimit:4;stroke-dasharray:none;stroke-dashoffset:0;stroke-opacity:1"
       id="rect7209"
       width="102.89539"
       height="232.71428"
       x="919.04608"
       y="419.71249"
       transform="matrix(-0.01027197,0.99994724,0.93213263,-0.36211706,0,0)" />
  </g>
</svg>
