<?xml version="1.0" encoding="UTF-8" standalone="no"?>
<!-- Created with Inkscape (http://www.inkscape.org/) -->

<svg
   xmlns:dc="http://purl.org/dc/elements/1.1/"
   xmlns:cc="http://creativecommons.org/ns#"
   xmlns:rdf="http://www.w3.org/1999/02/22-rdf-syntax-ns#"
   xmlns:svg="http://www.w3.org/2000/svg"
   xmlns="http://www.w3.org/2000/svg"
   xmlns:sodipodi="http://sodipodi.sourceforge.net/DTD/sodipodi-0.dtd"
   xmlns:inkscape="http://www.inkscape.org/namespaces/inkscape"
   width="697"
   height="648"
   viewBox="0 0 696.99998 648"
   id="svg7239"
   version="1.1"
   inkscape:version="0.91 r13725"
   sodipodi:docname="icon-s-24.svg">
  <defs
     id="defs7241" />
  <sodipodi:namedview
     id="base"
     pagecolor="#ffffff"
     bordercolor="#666666"
     borderopacity="1.0"
     inkscape:pageopacity="0.0"
     inkscape:pageshadow="2"
     inkscape:zoom="0.49497475"
     inkscape:cx="-195.9102"
     inkscape:cy="209.29355"
     inkscape:document-units="px"
     inkscape:current-layer="layer1"
     showgrid="false"
     units="px"
     inkscape:window-width="1360"
     inkscape:window-height="704"
     inkscape:window-x="0"
     inkscape:window-y="27"
     inkscape:window-maximized="1" />
  <metadata
     id="metadata7244">
    <rdf:RDF>
      <cc:Work
         rdf:about="">
        <dc:format>image/svg+xml</dc:format>
        <dc:type
           rdf:resource="http://purl.org/dc/dcmitype/StillImage" />
        <dc:title />
      </cc:Work>
    </rdf:RDF>
  </metadata>
  <g
     inkscape:label="Layer 1"
     inkscape:groupmode="layer"
     id="layer1"
     transform="translate(0,-404.36218)">
    <g
       id="g9339">
      <path
         style="fill:#0d47a1;fill-opacity:1"
         id="path5860"
         d="m 504.37767,492.94615 c -5.37509,-3.83935 -13.0538,-2.30361 -16.89315,3.83935 -3.83935,5.3751 -2.30361,13.0538 3.83935,16.89315 75.25129,48.37583 119.78777,131.30582 119.78777,220.37877 0,145.12749 -117.48416,262.61164 -262.61164,262.61164 -33.01842,0 -66.03684,-6.14296 -96.75166,-18.42888 l 16.89315,-3.83936 c 6.91083,-1.53574 10.75018,-8.44657 9.21444,-14.58953 -1.53574,-6.91083 -7.6787,-10.75019 -14.58953,-9.21445 l -52.21518,12.28593 c -3.83935,0.76787 -6.91083,3.07148 -8.44658,6.91083 0,0 0,0 0,0 0,0 0,0.76787 0,0.76787 -1.53574,3.07148 -1.53574,6.91083 0,10.75019 l 24.57185,47.60794 c 2.30362,3.8394 6.14297,6.9108 10.75019,6.9108 1.53574,0 3.83935,-0.7678 5.37509,-1.5357 6.14296,-3.0715 8.44657,-10.7502 5.37509,-16.1253 l -8.44657,-16.8931 c 34.55416,13.8216 71.41194,21.5004 108.26971,21.5004 158.18128,0 287.18349,-129.00226 287.18349,-287.18354 0,-99.05526 -49.1437,-189.66396 -131.30582,-242.64701 z"
         inkscape:connector-curvature="0" />
      <path
         style="fill:#0d47a1;fill-opacity:1"
         id="path5862"
         d="m 85.888361,734.05742 c 0,-145.12748 118.252029,-262.61164 262.611639,-262.61164 21.50037,0 43.00074,2.30361 63.73323,7.67871 l -15.3574,6.14296 c -6.14296,2.30361 -9.21445,9.21444 -6.91083,16.12527 1.53574,4.60723 6.14296,7.67871 11.51805,7.67871 1.53574,0 3.07148,0 4.60722,-0.76787 l 49.91157,-19.19676 c 3.83935,-1.53574 6.14296,-4.60722 6.91083,-7.6787 0,0 0,-0.76787 0,-0.76787 0,0 0,0 0,-0.76787 0.76787,-3.07148 0.76787,-6.91084 -1.53574,-10.75019 l -31.48268,-43.7686 c -4.60722,-4.60723 -11.51805,-6.14297 -17.66102,-2.30361 -5.37509,3.83935 -6.91083,11.51805 -3.07148,16.89314 l 11.51806,16.12528 c -23.80398,-6.14296 -47.60796,-9.21445 -72.94768,-9.21445 -157.41341,0 -286.415618,129.00221 -286.415618,287.18349 0,85.23361 37.625644,165.85999 103.662488,221.14665 2.30361,1.53574 5.37509,3.07148 7.6787,3.07148 3.83936,0 6.91084,-1.53574 9.21445,-4.60722 4.60722,-5.3751 3.83935,-13.0538 -1.53574,-16.89315 C 120.44252,886.09574 85.888361,812.38019 85.888361,734.05742 Z"
         inkscape:connector-curvature="0" />
      <path
         style="fill:#0d47a1;fill-opacity:1"
         id="path5864"
         d="M 429.12638,671.85993 C 418.3762,661.10975 404.55453,655.73465 389.965,655.73465 c -14.58954,0 -28.41121,5.3751 -39.16139,16.12528 l -2.30361,3.07148 -2.30361,-2.30361 c -10.75018,-10.75018 -24.57185,-16.12528 -39.16139,-16.12528 -14.58953,0 -28.4112,5.3751 -39.16138,16.12528 -21.50037,21.50037 -21.50037,56.8224 0,78.32277 L 348.5,830.80908 429.12638,750.1827 c 21.50037,-21.50037 21.50037,-56.8224 0,-78.32277 z M 411.46536,732.52168 348.5,796.25492 285.53464,733.28955 c -12.28593,-12.28592 -12.28593,-31.48268 0,-43.7686 6.14296,-6.14297 13.82166,-9.21445 21.50036,-9.21445 8.44658,0 16.12528,3.07148 21.50037,9.21445 L 348.5,709.48557 368.46463,689.52095 c 11.51805,-11.51806 31.48268,-11.51806 43.7686,0 11.51806,12.28592 11.51806,31.48268 -0.76787,43.00073 z"
         inkscape:connector-curvature="0" />
      <path
         style="fill:#0d47a1;fill-opacity:1"
         id="path5866"
         d="m 242.5339,899.91741 c -5.37509,-3.83936 -13.05379,-2.30362 -16.89315,3.83935 l -13.05379,20.73249 c -3.83935,5.3751 -2.30361,13.0538 3.83935,16.89315 2.30361,1.53574 4.60722,1.53574 6.91083,1.53574 3.83935,0 7.67871,-2.30361 9.98232,-5.37509 l 13.05379,-20.7325 c 3.83935,-5.37509 2.30361,-13.05379 -3.83935,-16.89314 z"
         inkscape:connector-curvature="0" />
      <path
         style="fill:#0d47a1;fill-opacity:1"
         id="path5868"
         d="m 141.94289,856.1488 c 2.30361,0 3.83935,-0.76787 5.37509,-1.53574 L 169.58622,843.095 c 6.14296,-3.07148 8.44658,-10.75018 5.37509,-16.89314 -3.07148,-6.14296 -10.75018,-8.44658 -16.89314,-5.37509 l -22.26824,11.51805 c -6.14296,3.07148 -8.44657,10.75018 -5.37509,16.89315 3.07148,4.60722 6.91083,6.91083 11.51805,6.91083 z"
         inkscape:connector-curvature="0" />
      <path
         style="fill:#0d47a1;fill-opacity:1"
         id="path5870"
         d="m 139.63928,740.96826 c 6.91083,0 12.28593,-5.3751 12.28593,-12.28593 0,-6.91083 -5.3751,-12.28592 -12.28593,-12.28592 l -24.57185,-0.76787 c -6.91083,0 -12.28592,5.37509 -12.28592,12.28592 0,6.91083 5.37509,12.28593 12.28592,12.28593 l 24.57185,0.76787 c 0,0 0,0 0,0 z"
         inkscape:connector-curvature="0" />
      <path
         style="fill:#0d47a1;fill-opacity:1"
         id="path5872"
         d="m 179.56854,632.69854 c 3.83935,-6.14296 1.53574,-13.05379 -3.83936,-16.89314 l -21.50036,-13.0538 c -6.14297,-3.83935 -13.0538,-1.53574 -16.89315,3.83935 -3.83935,6.14297 -1.53574,13.0538 3.83935,16.89315 l 21.50037,13.0538 c 2.30361,1.53574 3.83935,1.53574 6.14296,1.53574 4.60722,0.76787 8.44658,-1.53574 10.75019,-5.3751 z"
         inkscape:connector-curvature="0" />
      <path
         style="fill:#0d47a1;fill-opacity:1"
         id="path5874"
         d="m 256.35557,545.9292 -12.28593,-21.50037 c -3.07148,-6.14296 -10.75018,-7.6787 -16.89315,-4.60722 -6.14296,3.07148 -7.6787,10.75019 -4.60722,16.89315 l 12.28593,21.50037 c 2.30361,3.83935 6.14296,6.14296 10.75018,6.14296 2.30361,0 3.83935,-0.76787 6.14296,-1.53574 5.3751,-3.07148 7.67871,-10.75019 4.60723,-16.89315 z"
         inkscape:connector-curvature="0" />
      <path
         style="fill:#0d47a1;fill-opacity:1"
         id="path5876"
         d="m 348.5,537.48263 c 6.91083,0 12.28592,-5.37509 12.28592,-12.28593 l 0,-24.57185 c 0,-6.91083 -5.37509,-12.28592 -12.28592,-12.28592 -6.91083,0 -12.28592,5.37509 -12.28592,12.28592 l 0,24.57185 c 0,6.91084 5.37509,12.28593 12.28592,12.28593 z"
         inkscape:connector-curvature="0" />
      <path
         style="fill:#0d47a1;fill-opacity:1"
         id="path5878"
         d="m 336.21408,942.91814 0,24.57185 c 0,6.91083 5.37509,12.28593 12.28592,12.28593 6.91083,0 12.28592,-5.3751 12.28592,-12.28593 l 0,-24.57185 c 0,-6.91083 -5.37509,-12.28592 -12.28592,-12.28592 -6.91083,0 -12.28592,5.37509 -12.28592,12.28592 z"
         inkscape:connector-curvature="0" />
      <path
         style="fill:#0d47a1;fill-opacity:1"
         id="path5880"
         d="m 452.93036,524.42883 -12.28593,21.50037 c -3.07148,6.14296 -1.53574,13.0538 4.60723,16.89315 1.53574,0.76787 3.83935,1.53574 6.14296,1.53574 4.60722,0 8.44657,-2.30361 10.75018,-6.14296 l 12.28593,-21.50037 c 3.07148,-6.14296 1.53574,-13.0538 -4.60722,-16.89315 -6.14297,-3.07148 -13.0538,-1.53574 -16.89315,4.60722 z"
         inkscape:connector-curvature="0" />
      <path
         style="fill:#0d47a1;fill-opacity:1"
         id="path5882"
         d="m 542.77118,603.51947 -21.50036,13.0538 c -6.14297,3.83935 -7.67871,10.75018 -3.83936,16.89314 2.30361,3.83936 6.14297,6.14297 10.75019,6.14297 2.30361,0 4.60722,-0.76787 6.14296,-1.53574 l 21.50037,-13.0538 c 6.14296,-3.83935 7.6787,-10.75018 3.83935,-16.89314 -3.83935,-6.14297 -11.51805,-8.44658 -16.89315,-4.60723 z"
         inkscape:connector-curvature="0" />
      <path
         style="fill:#0d47a1;fill-opacity:1"
         id="path5884"
         d="m 594.21849,727.91446 c 0,-6.91083 -6.14296,-12.28592 -12.28592,-12.28592 l -24.57185,0.76787 c -6.91083,0 -12.28593,6.14296 -12.28593,12.28592 0,6.91083 5.3751,12.28593 12.28593,12.28593 0,0 0,0 0,0 l 24.57185,-0.76787 c 7.6787,0 13.05379,-5.3751 12.28592,-12.28593 z"
         inkscape:connector-curvature="0" />
      <path
         style="fill:#0d47a1;fill-opacity:1"
         id="path5886"
         d="m 538.93183,821.59464 c -6.14296,-3.07149 -13.05379,-0.76787 -16.89314,5.37509 -3.07149,6.14296 -0.76787,13.05379 5.37509,16.89314 l 22.26824,11.51806 c 1.53574,0.76787 3.83935,1.53574 5.37509,1.53574 4.60722,0 8.44657,-2.30361 10.75018,-6.14296 3.07148,-6.14297 0.76787,-13.0538 -5.37509,-16.89315 l -21.50037,-12.28592 z"
         inkscape:connector-curvature="0" />
      <path
         style="fill:#0d47a1;fill-opacity:1"
         id="path5888"
         d="m 454.4661,899.91741 c -5.37509,3.83935 -7.6787,11.51805 -3.83935,16.89314 l 13.05379,20.7325 c 2.30361,3.83935 6.14297,5.37509 9.98232,5.37509 2.30361,0 4.60722,-0.76787 6.91083,-1.53574 5.37509,-3.83935 7.6787,-11.51805 3.83935,-16.89315 l -13.05379,-20.73249 c -3.83936,-5.3751 -11.51806,-6.91084 -16.89315,-3.83935 z"
         inkscape:connector-curvature="0" />
    </g>
  </g>
</svg>
